<?xml version="1.0" encoding="iso-8859-1"?>
<!-- Uploaded to: SVG Repo, www.svgrepo.com, Generator: SVG Repo Mixer Tools -->
<svg height="800px" width="800px" version="1.1" id="Layer_1" xmlns="http://www.w3.org/2000/svg" xmlns:xlink="http://www.w3.org/1999/xlink" 
	 viewBox="0 0 502 502" xml:space="preserve">
<g>
	<g>
		<g>
			<path style="fill:#E6E6E6;" d="M280.348,391.384V110.616c0-16.209-13.14-29.348-29.348-29.348s-29.348,13.14-29.348,29.348
				v280.767c0,16.209,13.14,29.348,29.348,29.348S280.348,407.592,280.348,391.384z"/>
			<path d="M251,430.732c-21.697,0-39.349-17.652-39.349-39.349V110.617c0-21.697,17.652-39.349,39.349-39.349
				s39.349,17.652,39.349,39.349v280.767C290.349,413.08,272.697,430.732,251,430.732z M251,91.268
				c-10.669,0-19.349,8.68-19.349,19.349v280.767c0,10.669,8.68,19.349,19.349,19.349s19.349-8.68,19.349-19.349V110.617
				C270.349,99.948,261.669,91.268,251,91.268z"/>
		</g>
	</g>
	<g>
		<g>
			<path style="fill:#E6E6E6;" d="M167.308,349.269c0-7.529-2.878-15.055-8.632-20.789L80.926,251l77.75-77.48
				c11.48-11.441,11.514-30.024,0.072-41.505c-11.441-11.481-30.024-11.513-41.505-0.072l-98.611,98.269
				C13.106,235.718,10,243.199,10,251s3.106,15.282,8.632,20.789l98.611,98.269c11.481,11.441,30.064,11.409,41.505-0.072
				C164.455,364.258,167.308,356.762,167.308,349.269z"/>
			<path d="M137.958,388.617c-10.485,0-20.345-4.074-27.773-11.477l-98.61-98.269C4.218,271.543,0,261.384,0,251
				s4.218-20.543,11.574-27.872l98.611-98.269c7.428-7.402,17.289-11.477,27.773-11.477c0.023,0,0.046,0,0.07,0
				c10.51,0.019,20.385,4.128,27.804,11.574c7.419,7.444,11.495,17.333,11.477,27.844c-0.019,10.51-4.129,20.384-11.574,27.803
				L95.093,251l70.642,70.396c7.464,7.438,11.574,17.337,11.574,27.873l0,0l0,0c0,10.484-4.076,20.348-11.477,27.774
				c-7.418,7.445-17.293,11.555-27.803,11.573C138.005,388.617,137.98,388.617,137.958,388.617z M137.958,133.383
				c-5.156,0-10.004,2.003-13.656,5.643l-98.611,98.269C22.074,240.899,20,245.894,20,251c0,5.106,2.074,10.101,5.691,13.705
				l98.611,98.269c3.653,3.64,8.501,5.644,13.657,5.644c0.012,0,0.023,0,0.035,0c5.168-0.009,10.023-2.03,13.671-5.691
				c3.64-3.652,5.644-8.502,5.644-13.657l0,0c0-5.181-2.021-10.048-5.691-13.705l-77.75-77.48c-1.883-1.876-2.941-4.425-2.941-7.083
				s1.059-5.207,2.941-7.083l77.75-77.48c3.661-3.648,5.682-8.503,5.691-13.671c0.009-5.168-1.995-10.03-5.643-13.691
				c-3.648-3.661-8.504-5.682-13.672-5.691C137.981,133.383,137.97,133.383,137.958,133.383z"/>
		</g>
	</g>
	<g>
		<g>
			<path style="fill:#E6E6E6;" d="M492,251c0-7.801-3.106-15.282-8.632-20.788l-98.611-98.269
				c-11.481-11.441-30.064-11.409-41.505,0.072s-11.409,30.064,0.072,41.505l77.75,77.48l-77.75,77.48
				c-11.48,11.441-11.514,30.023-0.072,41.505c11.441,11.481,30.024,11.513,41.505,0.072l98.611-98.269
				C488.894,266.282,492,258.801,492,251z"/>
			<path d="M364.042,388.617c-0.023,0-0.046,0-0.07,0c-10.51-0.019-20.385-4.128-27.804-11.574
				c-7.419-7.445-11.495-17.333-11.477-27.844c0.019-10.51,4.129-20.384,11.574-27.803L406.907,251l-70.642-70.396
				c-15.369-15.315-15.412-40.278-0.097-55.647c7.419-7.445,17.293-11.555,27.804-11.574c0.023,0,0.047,0,0.07,0
				c10.485,0,20.345,4.074,27.773,11.477l98.61,98.269C497.782,230.457,502,240.616,502,251s-4.218,20.543-11.574,27.872
				l-98.611,98.269C384.388,384.543,374.526,388.617,364.042,388.617z M364.042,133.383c-0.012,0-0.023,0-0.035,0
				c-5.168,0.009-10.023,2.03-13.671,5.691c-3.648,3.661-5.652,8.523-5.644,13.691c0.009,5.168,2.03,10.023,5.691,13.671
				l77.75,77.48c1.883,1.876,2.941,4.425,2.941,7.083s-1.059,5.207-2.941,7.083l-77.75,77.48c-3.661,3.648-5.682,8.503-5.691,13.671
				s1.995,10.03,5.644,13.691c3.648,3.661,8.503,5.682,13.671,5.691c0.012,0,0.023,0,0.035,0c5.156,0,10.004-2.003,13.656-5.643
				l98.611-98.269C479.926,261.101,482,256.106,482,251s-2.074-10.101-5.691-13.705l-98.611-98.269
				C374.045,135.386,369.197,133.383,364.042,133.383z"/>
		</g>
	</g>
	<g>
		<path d="M59,238c-2.559,0-5.119-0.976-7.071-2.929c-3.905-3.905-3.905-10.237,0-14.143l7-7c3.905-3.905,10.237-3.905,14.143,0
			c3.905,3.905,3.905,10.237,0,14.143l-7,7C64.119,237.024,61.559,238,59,238z"/>
	</g>
	<g>
		<path d="M88,209c-2.559,0-5.119-0.976-7.071-2.929c-3.905-3.905-3.905-10.237,0-14.143l49-49c3.905-3.905,10.237-3.905,14.143,0
			c3.905,3.905,3.905,10.237,0,14.143l-49,49C93.119,208.024,90.559,209,88,209z"/>
	</g>
</g>
</svg>